<svg width="48" height="47" fill="none" xmlns="http://www.w3.org/2000/svg"><path fill-rule="evenodd" clip-rule="evenodd" d="M17.602 20.2l6.4-6.4 6.4 6.4M17.602 29.8l6.4-6.4 6.4 6.4" fill="#004B85"/><path d="M24.002 45.8c-12.372 0-22.4-10.029-22.4-22.4C1.602 11.029 11.63 1 24.002 1c12.37 0 22.4 10.029 22.4 22.4 0 12.371-10.03 22.4-22.4 22.4z" fill="#004B85"/><path d="M17.602 20.2l6.4-6.4 6.4 6.4m-12.8 9.6l6.4-6.4 6.4 6.4m-28.8-6.4c0 12.371 10.028 22.4 22.4 22.4 12.37 0 22.4-10.029 22.4-22.4 0-12.371-10.03-22.4-22.4-22.4-12.372 0-22.4 10.029-22.4 22.4z" stroke="#FCFBFB" stroke-width="2" stroke-linecap="round" stroke-linejoin="round"/></svg>