<svg width="27" height="19" fill="none" xmlns="http://www.w3.org/2000/svg"><path d="M13.5 10.93l-.434.901.434.209.433-.209-.433-.901zm-10-8.825h20v-2h-20v2zm20.666.404v14.035h2V2.51h-2zM23.5 16.948h-20v2h20v-2zm-20.667-.404V2.51h-2v14.035h2zm.667.404a.833.833 0 01-.535-.176c-.11-.094-.132-.178-.132-.228h-2c0 1.482 1.362 2.404 2.667 2.404v-2zm20.666-.404c0 .05-.021.134-.132.228a.833.833 0 01-.534.176v2c1.305 0 2.666-.922 2.666-2.404h-2zM23.5 2.105c.235 0 .421.081.534.176.11.094.132.178.132.228h2c0-1.482-1.361-2.404-2.666-2.404v2zm-20-2C2.195.105.833 1.027.833 2.51h2c0-.05.021-.134.132-.228a.833.833 0 01.535-.176v-2zM1.4 6.217l11.666 5.614.867-1.802L2.267 4.415l-.868 1.802zm12.533 5.614L25.6 6.217l-.867-1.802-11.667 5.614.867 1.802z" fill="#fff"/></svg>