<svg width="27" height="19" viewBox="0 0 27 19" fill="none" xmlns="http://www.w3.org/2000/svg">
<path d="M13.4997 10.93L13.0661 11.8311L13.4997 12.0398L13.9333 11.8311L13.4997 10.93ZM3.49967 2.10547H23.4997V0.105469H3.49967V2.10547ZM24.1663 2.50898V16.5441H26.1663V2.50898H24.1663ZM23.4997 16.9476H3.49968V18.9476H23.4997V16.9476ZM2.83301 16.5441V2.50898H0.833008V16.5441H2.83301ZM3.49968 16.9476C3.26399 16.9476 3.07826 16.8667 2.9653 16.7716C2.85448 16.6783 2.83301 16.594 2.83301 16.5441H0.833008C0.833008 18.0256 2.19484 18.9476 3.49968 18.9476V16.9476ZM24.1663 16.5441C24.1663 16.594 24.1449 16.6783 24.034 16.7716C23.9211 16.8667 23.7354 16.9476 23.4997 16.9476V18.9476C24.8045 18.9476 26.1663 18.0256 26.1663 16.5441H24.1663ZM23.4997 2.10547C23.7354 2.10547 23.9211 2.18633 24.034 2.28146C24.1449 2.37478 24.1663 2.45909 24.1663 2.50898H26.1663C26.1663 1.02741 24.8045 0.105469 23.4997 0.105469V2.10547ZM3.49967 0.105469C2.19484 0.105469 0.833008 1.02741 0.833008 2.50898H2.83301C2.83301 2.45909 2.85448 2.37478 2.9653 2.28146C3.07826 2.18633 3.26399 2.10547 3.49967 2.10547V0.105469ZM1.3994 6.21709L13.0661 11.8311L13.9333 10.0289L2.26662 4.41489L1.3994 6.21709ZM13.9333 11.8311L25.6 6.21709L24.7327 4.41489L13.0661 10.0289L13.9333 11.8311Z" fill="white"/>
</svg>
