<svg width="27" height="27" viewBox="0 0 27 27" fill="none" xmlns="http://www.w3.org/2000/svg">
<path d="M8.86529 1.8335H5.16659C3.32564 1.8335 1.83325 3.32588 1.83325 5.16683V8.50016C1.83325 17.7049 9.29517 25.1668 18.4999 25.1668H21.8333C23.6742 25.1668 25.1666 23.6744 25.1666 21.8335V19.5302C25.1666 18.8989 24.8099 18.3218 24.2453 18.0395L20.2187 16.0262C19.3116 15.5726 18.213 16.0277 17.8922 16.9899L17.396 18.4787C17.0745 19.4431 16.0852 20.0172 15.0884 19.8179C11.0987 19.0199 7.98016 15.9013 7.18222 11.9117C6.98286 10.9149 7.55696 9.92559 8.52135 9.60413L10.3691 8.98822C11.1953 8.71282 11.6701 7.84775 11.4589 7.00286L10.4822 3.09594C10.2967 2.35399 9.63007 1.8335 8.86529 1.8335Z" stroke="white" stroke-width="2"/>
</svg>
