<svg width="27" height="27" viewBox="0 0 27 27" fill="none" xmlns="http://www.w3.org/2000/svg">
<path d="M8.86529 1.83337H5.16659C3.32564 1.83337 1.83325 3.32576 1.83325 5.16671V8.50004C1.83325 17.7048 9.29517 25.1667 18.4999 25.1667H21.8333C23.6742 25.1667 25.1666 23.6743 25.1666 21.8334V19.5301C25.1666 18.8988 24.8099 18.3217 24.2453 18.0394L20.2187 16.0261C19.3116 15.5725 18.213 16.0276 17.8922 16.9898L17.396 18.4786C17.0745 19.443 16.0852 20.0171 15.0884 19.8177C11.0987 19.0198 7.98016 15.9012 7.18222 11.9116C6.98286 10.9147 7.55696 9.92547 8.52135 9.60401L10.3691 8.9881C11.1953 8.7127 11.6701 7.84763 11.4589 7.00274L10.4822 3.09581C10.2967 2.35387 9.63007 1.83337 8.86529 1.83337Z" stroke="#004B85" stroke-width="2"/>
</svg>
